<?xml version="1.0" encoding="UTF-8" standalone="no"?>
<!-- Created with Inkscape (http://www.inkscape.org/) -->

<svg
   xmlns:dc="http://purl.org/dc/elements/1.1/"
   xmlns:cc="http://creativecommons.org/ns#"
   xmlns:rdf="http://www.w3.org/1999/02/22-rdf-syntax-ns#"
   xmlns:svg="http://www.w3.org/2000/svg"
   xmlns="http://www.w3.org/2000/svg"
   xmlns:sodipodi="http://sodipodi.sourceforge.net/DTD/sodipodi-0.dtd"
   xmlns:inkscape="http://www.inkscape.org/namespaces/inkscape"
   width="48px"
   height="48px"
   id="svg3112"
   version="1.1"
   inkscape:version="0.48.3.1 r9886"
   sodipodi:docname="New document 7">
  <defs
     id="defs3114" />
  <sodipodi:namedview
     id="base"
     pagecolor="#ffffff"
     bordercolor="#666666"
     borderopacity="1.0"
     inkscape:pageopacity="0.0"
     inkscape:pageshadow="2"
     inkscape:zoom="7"
     inkscape:cx="24"
     inkscape:cy="24"
     inkscape:current-layer="layer1"
     showgrid="true"
     inkscape:grid-bbox="true"
     inkscape:document-units="px"
     inkscape:window-width="1375"
     inkscape:window-height="876"
     inkscape:window-x="65"
     inkscape:window-y="24"
     inkscape:window-maximized="1" />
  <metadata
     id="metadata3117">
    <rdf:RDF>
      <cc:Work
         rdf:about="">
        <dc:format>image/svg+xml</dc:format>
        <dc:type
           rdf:resource="http://purl.org/dc/dcmitype/StillImage" />
        <dc:title></dc:title>
      </cc:Work>
    </rdf:RDF>
  </metadata>
  <g
     id="layer1"
     inkscape:label="Layer 1"
     inkscape:groupmode="layer">
    <path
       d="m 21.439936,5.8925305 c 0,-0.316071 -0.166086,-0.6066487 -0.439106,-0.7634013 L 13.726929,0.94296176 C 13.603837,0.87073565 13.465986,0.8331126 13.326268,0.82745385 c -0.01225,0 -0.06493,0 -0.07519,0 -0.138784,0.005636 -0.276869,0.043286 -0.401477,0.11550791 L 5.5756404,5.1291292 C 5.3044632,5.2858818 5.1358319,5.5764595 5.1358319,5.8925305 l 0.015954,11.2720775 c 0,0.156782 0.081351,0.302625 0.2192201,0.37942 0.1351337,0.0809 0.3019417,0.0809 0.4366171,0 l 4.3226593,-2.475234 c 0.273457,-0.162474 0.440033,-0.448922 0.440033,-0.762258 l 0,-5.2662992 c 0,-0.3140298 0.166354,-0.6045499 0.438685,-0.7606602 l 1.840599,-1.0601052 c 0.137151,-0.079279 0.287078,-0.1180166 0.440213,-0.1180166 0.149985,0 0.303762,0.038736 0.437122,0.1180166 l 1.840133,1.0601052 c 0.272318,0.1561103 0.439338,0.4466304 0.439338,0.7606602 l 0,5.2662992 c 0,0.313336 0.168595,0.601604 0.440272,0.762258 l 4.321743,2.475234 c 0.135575,0.0809 0.304637,0.0809 0.439105,0 0.134001,-0.07679 0.218298,-0.222638 0.218298,-0.37942 l 0.01412,-11.2720775"
       style="fill:#404137;fill-opacity:1;fill-rule:evenodd;stroke:none"
       id="path3024"
       inkscape:connector-curvature="0" />
    <path
       d="m 15.804145,38.616497 c 0,0.07841 -0.04195,0.151094 -0.110082,0.190063 l -2.498236,1.440231 c -0.06791,0.03897 -0.15156,0.03897 -0.219465,0 l -2.49847,-1.440231 c -0.06791,-0.03897 -0.109849,-0.111657 -0.109849,-0.190063 l 0,-2.884954 c 0,-0.07817 0.04194,-0.150861 0.109616,-0.190296 l 2.49847,-1.442915 c 0.06814,-0.03943 0.151793,-0.03943 0.219931,0 l 2.498469,1.442915 c 0.06767,0.03943 0.109616,0.112125 0.109616,0.190296 l 0,2.884954 z m 0.674963,-21.3644 c -0.136042,-0.07589 -0.302129,-0.07409 -0.436596,0.0048 -0.134235,0.07881 -0.216723,0.223083 -0.216723,0.378727 l 0,11.163132 c 0,0.109615 -0.0588,0.211239 -0.153602,0.266193 -0.09504,0.05513 -0.212348,0.05513 -0.307613,0 l -1.821932,-1.049622 c -0.271619,-0.156576 -0.606125,-0.156344 -0.877802,1.76e-4 L 5.3879637,32.215146 C 5.1158788,32.372132 4.948625,32.66201 4.948625,32.976039 l 0,8.400781 c 0,0.31379 0.1672538,0.603884 0.4391049,0.76112 l 7.2764691,4.202565 c 0.272085,0.157009 0.607058,0.157009 0.879143,0 l 7.277752,-4.202565 c 0.271852,-0.157236 0.43928,-0.44733 0.43928,-0.76112 l 0,-20.941024 c 0,-0.31858 -0.172679,-0.612074 -0.450947,-0.767485 l -4.330319,-2.416214"
       style="fill:#404137;fill-opacity:1;fill-rule:evenodd;stroke:none"
       id="path3026"
       inkscape:connector-curvature="0" />
    <path
       d="m 42.513232,35.656113 c 0.270685,-0.157219 0.436946,-0.446631 0.436946,-0.759727 l 0,-2.035679 c 0,-0.313097 -0.166261,-0.602742 -0.437529,-0.759961 l -7.229742,-4.198009 c -0.272434,-0.15792 -0.607874,-0.158153 -0.880892,-0.0011 l -7.274077,4.199644 c -0.271853,0.156984 -0.43928,0.446864 -0.43928,0.760893 l 0,8.398493 c 0,0.315844 0.169761,0.607303 0.443947,0.763402 l 7.229157,4.119159 c 0.266602,0.152223 0.593291,0.153819 0.861642,0.0048 l 4.372381,-2.430342 c 0.138842,-0.07703 0.225181,-0.222639 0.225765,-0.381013 0.0011,-0.158379 -0.08342,-0.305132 -0.220515,-0.383981 L 32.28087,38.751024 c -0.137092,-0.07817 -0.221098,-0.223781 -0.221098,-0.381001 l 0,-2.632062 c 0,-0.156985 0.08401,-0.302128 0.219931,-0.380534 l 2.278655,-1.313529 c 0.135342,-0.07835 0.302772,-0.07835 0.438697,0 l 2.279238,1.313523 c 0.135927,0.0784 0.219932,0.223548 0.219932,0.380534 l 0,2.070798 c 0,0.15722 0.08401,0.302596 0.219931,0.381002 0.136509,0.07859 0.303937,0.07793 0.439863,-9.12e-4 l 4.357213,-2.532686"
       style="fill:#404137;fill-opacity:1;fill-rule:evenodd;stroke:none"
       id="path3028"
       inkscape:connector-curvature="0" />
    <path
       d="m 34.672059,1.0028742 c 0.271618,-0.15698549 0.606591,-0.15698549 0.87821,0 l 7.276002,4.1987098 c 0.272085,0.1568107 0.439571,0.4468637 0.439571,0.7611265 l 0,8.4037615 c 0,0.314018 -0.167486,0.603878 -0.439105,0.761115 l -7.276002,4.20211 c -0.272085,0.15701 -0.607057,0.15701 -0.879143,0 l -7.274135,-4.20211 C 27.125547,14.97035 26.95806,14.68049 26.95806,14.366472 l 0,-8.4042281 c 0,-0.3137962 0.167487,-0.6038492 0.439572,-0.7606599 l 7.274427,-4.1987098"
       style="fill:#83cd29;fill-opacity:1;fill-rule:evenodd;stroke:none"
       id="path3030"
       inkscape:connector-curvature="0" />
    <path
       d="m 34.735121,35.262803 c 0.05251,-0.03033 0.116674,-0.03033 0.168594,0 l 1.396596,0.805579 c 0.05192,0.03005 0.08401,0.08564 0.08401,0.146019 l 0,1.612267 c 0,0.06039 -0.03208,0.115975 -0.08401,0.146077 l -1.396596,0.805581 c -0.05193,0.03028 -0.11609,0.03028 -0.168594,0 l -1.394845,-0.805581 c -0.05251,-0.0301 -0.08459,-0.0857 -0.08459,-0.146077 l 0,-1.612267 c 0,-0.06037 0.03209,-0.115974 0.08459,-0.146019 l 1.394845,-0.805579"
       style="fill:#83cd29;fill-opacity:1;fill-rule:evenodd;stroke:none"
       id="path3040"
       inkscape:connector-curvature="0" />
  </g>
</svg>
